#N canvas 559 22 1763 973 10;
#X obj 195 107 2bars;
#X obj 134 107 SeqBar;
#X obj 103 107 vsl 15 128 100 200 0 0 empty empty empty 0 -9 0 10 -262144
-1 -1 3429 1;
#X floatatom 499 109 5 0 0 0 - - -;
#X floatatom 597 111 5 0 0 0 - - -;
#X obj 373 145 bng 15 250 50 0 empty empty empty 17 7 0 10 -262144
-1 -1;
#X obj 194 169 LP6Row;
#N canvas 0 22 450 278 (subpatch) 0;
#X array cL1 35280 float 2;
#X coords 0 1 35280 -1 200 140 1;
#X restore 1659 -74 graph;
#N canvas 0 22 450 278 (subpatch) 0;
#X array cR1 35280 float 2;
#X coords 0 1 35280 -1 200 140 1 0 0;
#X restore 1660 91 graph;
#X obj 377 339 bng 15 250 50 0 empty empty empty 17 7 0 10 -262144
-1 -1;
#X obj 521 347 openpanel;
#X obj 1614 738 soundfiler;
#X floatatom 1640 789 12 0 0 0 - - -;
#X obj 1642 826 s sampleSize;
#X obj 1371 782 *~;
#X obj 1576 774 *~;
#X obj 1570 666 vsl 15 50 0 0.5 0 0 empty empty empty 0 -9 0 10 -262144
-1 -1 4900 1;
#X obj 1426 829 dac~ 1 2;
#X obj 1661 250 hsl 200 20 0 1 0 0 empty empty empty -2 -8 0 10 -262144
-1 -1 0 1;
#X obj 1224 303 bng 15 250 50 0 empty empty empty 17 7 0 10 -262144
-1 -1;
#X obj 1218 -50 route 0 1 2 3 4 5 6 7;
#N canvas 0 22 450 278 (subpatch) 0;
#X array row03 8 float 1;
#A 0 0 0 0 0 0 0 0 0;
#X coords 0 1 7 -1 200 140 1;
#X restore -427 189 graph;
#N canvas 0 22 450 278 (subpatch) 0;
#X array row02 8 float 1;
#A 0 0 0 0 0 0 0 0 0;
#X coords 0 1 7 -1 200 140 1 0 0;
#X restore 14 -124 graph;
#N canvas 0 22 450 278 (subpatch) 0;
#X array row07 8 float 1;
#A 0 0 0 0 0 0 0 0 0;
#X coords 0 1 7 -1 200 140 1 0 0;
#X restore -409 895 graph;
#N canvas 0 22 450 278 (subpatch) 0;
#X array row04 8 float 1;
#A 0 0 0 0 0 0 0 0 0;
#X coords 0 1 7 -1 200 140 1;
#X restore -428 342 graph;
#N canvas 0 22 450 278 (subpatch) 0;
#X array row06 8 float 1;
#A 0 0 0 0 0 0 0 0 0;
#X coords 0 1 7 -1 200 140 1 0 0;
#X restore -407 729 graph;
#N canvas 0 22 450 278 (subpatch) 0;
#X array row05 8 float 1;
#A 0 0 0 0 0 0 0 0 0;
#X coords 0 1 7 -1 200 140 1 0 0;
#X restore -423 516 graph;
#X obj 1210 49 tabread row02;
#X floatatom 1215 99 5 0 0 0 - - -;
#X obj 1204 184 route 0 1;
#N canvas 0 22 450 278 (subpatch) 0;
#X array cL4 2055 float 2;
#X coords 0 1 2055 -1 200 140 1 0 0;
#X restore 2370 -62 graph;
#N canvas 0 22 450 278 (subpatch) 0;
#X array cR4 17640 float 2;
#X coords 0 1 17640 -1 200 140 1 0 0;
#X restore 2372 110 graph;
#N canvas 0 22 450 278 (subpatch) 0;
#X array cL7 10768 float 2;
#X coords 0 1 10768 -1 200 140 1;
#X restore 2221 304 graph;
#N canvas 0 22 450 278 (subpatch) 0;
#X array cR7 4291 float 2;
#X coords 0 1 4291 -1 200 140 1 0 0;
#X restore 2222 469 graph;
#N canvas 0 22 450 278 (subpatch) 0;
#X array cL3 5252 float 2;
#X coords 0 1 5252 -1 200 140 1;
#X restore 2160 -69 graph;
#N canvas 0 22 450 278 (subpatch) 0;
#X array cR3 5252 float 2;
#X coords 0 1 5252 -1 200 140 1 0 0;
#X restore 2161 96 graph;
#N canvas 0 22 450 278 (subpatch) 0;
#X array cL5 17640 float 2;
#X coords 0 1 17640 -1 200 140 1;
#X restore 1732 319 graph;
#N canvas 0 22 450 278 (subpatch) 0;
#X array cR5 17640 float 2;
#X coords 0 1 17640 -1 200 140 1 0 0;
#X restore 1733 484 graph;
#N canvas 0 22 450 278 (subpatch) 0;
#X array cL6 17640 float 2;
#X coords 0 1 17640 -1 200 140 1;
#X restore 1998 276 graph;
#N canvas 0 22 450 278 (subpatch) 0;
#X array cR6 17640 float 2;
#X coords 0 1 17640 -1 200 140 1 0 0;
#X restore 1999 441 graph;
#N canvas 0 22 450 278 (subpatch) 0;
#X array cL2 35280 float 2;
#X coords 0 1 35280 -1 200 140 1;
#X restore 1930 -49 graph;
#N canvas 0 22 450 278 (subpatch) 0;
#X array cR2 35280 float 2;
#X coords 0 1 35280 -1 200 140 1 0 0;
#X restore 1931 116 graph;
#X obj 1326 685 tabplay~ cL1;
#X msg 1628 691 read -resize \$1 cL1 cR1;
#X obj 1422 686 tabplay~ cR1;
#X obj 377 175 bng 15 250 50 0 empty empty empty 17 7 0 10 -262144
-1 -1;
#X obj 1001 177 openpanel;
#X obj 999 218 soundfiler;
#X floatatom 1067 220 12 0 0 0 - - -;
#X obj 994 240 s sampleSize;
#X obj 821 322 *~;
#X obj 948 308 *~;
#X obj 976 190 vsl 15 50 0 0.5 0 0 empty empty empty 0 -9 0 10 -262144
-1 -1 4900 1;
#X obj 884 343 dac~ 1 2;
#X obj 899 230 bng 15 250 50 0 empty empty empty 17 7 0 10 -262144
-1 -1;
#X msg 1000 194 read -resize \$1 cL2 cR2;
#X obj 879 249 tabplay~ cR2;
#X obj 792 249 tabplay~ cL2;
#X floatatom 884 191 5 0 0 0 - - -;
#X obj 875 213 route 0 1;
#X obj 861 169 tabread row03;
#X floatatom 1326 24 5 0 0 0 - - -;
#X obj 377 208 bng 15 250 50 0 empty empty empty 17 7 0 10 -262144
-1 -1;
#X obj 971 389 openpanel;
#X obj 969 430 soundfiler;
#X floatatom 1037 432 12 0 0 0 - - -;
#X obj 964 452 s sampleSize;
#X obj 791 534 *~;
#X obj 918 520 *~;
#X obj 946 407 vsl 15 50 0 0.5 0 0 empty empty empty 0 -9 0 10 -262144
-1 -1 4900 1;
#X obj 854 555 dac~ 1 2;
#X obj 869 442 bng 15 250 50 0 empty empty empty 17 7 0 10 -262144
-1 -1;
#X floatatom 854 403 5 0 0 0 - - -;
#X obj 845 425 route 0 1;
#X obj 831 381 tabread row04;
#X obj 761 461 tabplay~ cL3;
#X obj 849 461 tabplay~ cR3;
#X msg 970 406 read -resize \$1 cL3 cR3;
#X obj 376 243 bng 15 250 50 0 empty empty empty 17 7 0 10 -262144
-1 -1;
#X obj 968 647 openpanel;
#X obj 966 688 soundfiler;
#X floatatom 1034 690 12 0 0 0 - - -;
#X obj 961 710 s sampleSize;
#X obj 788 792 *~;
#X obj 915 778 *~;
#X obj 943 665 vsl 15 50 0 0.5 0 0 empty empty empty 0 -9 0 10 -262144
-1 -1 4900 1;
#X obj 851 813 dac~ 1 2;
#X obj 866 700 bng 15 250 50 0 empty empty empty 17 7 0 10 -262144
-1 -1;
#X floatatom 851 661 5 0 0 0 - - -;
#X obj 842 683 route 0 1;
#X obj 828 639 tabread row05;
#X obj 758 719 tabplay~ cL4;
#X obj 846 719 tabplay~ cR4;
#X msg 967 664 read -resize \$1 cL4 cR4;
#X obj 376 274 bng 15 250 50 0 empty empty empty 17 7 0 10 -262144
-1 -1;
#X obj 463 603 openpanel;
#X obj 461 644 soundfiler;
#X floatatom 529 646 12 0 0 0 - - -;
#X obj 456 666 s sampleSize;
#X obj 283 748 *~;
#X obj 410 734 *~;
#X obj 438 621 vsl 15 50 0 0.5 0 0 empty empty empty 0 -9 0 10 -262144
-1 -1 4900 1;
#X obj 346 769 dac~ 1 2;
#X obj 361 656 bng 15 250 50 0 empty empty empty 17 7 0 10 -262144
-1 -1;
#X floatatom 346 617 5 0 0 0 - - -;
#X obj 337 639 route 0 1;
#X obj 323 595 tabread row06;
#X obj 253 675 tabplay~ cL5;
#X obj 341 675 tabplay~ cR5;
#X msg 462 620 read -resize \$1 cL5 cR5;
#X obj 376 310 bng 15 250 50 0 empty empty empty 17 7 0 10 -262144
-1 -1;
#X obj 598 798 openpanel;
#X obj 596 839 soundfiler;
#X floatatom 664 841 12 0 0 0 - - -;
#X obj 591 861 s sampleSize;
#X obj 418 943 *~;
#X obj 545 929 *~;
#X obj 573 816 vsl 15 50 0 0.5 0 0 empty empty empty 0 -9 0 10 -262144
-1 -1 4900 1;
#X obj 481 964 dac~ 1 2;
#X obj 496 851 bng 15 250 50 0 empty empty empty 17 7 0 10 -262144
-1 -1;
#X floatatom 481 812 5 0 0 0 - - -;
#X obj 472 834 route 0 1;
#X obj 458 790 tabread row07;
#X obj 388 870 tabplay~ cL6;
#X obj 476 870 tabplay~ cR6;
#X msg 597 815 read -resize \$1 cL6 cR6;
#X obj 472 10 loadbang;
#X msg 207 26 127;
#X msg 294 73 0;
#X msg 198 61 1;
#X msg 249 75 70;
#X obj 396 108 SeqBar;
#X obj 465 177 hsl 128 15 0 0.5 0 0 empty empty empty -2 -8 0 10 -262144
-1 -1 12700 1;
#X obj 466 202 hsl 128 15 0 0.5 0 0 empty empty empty -2 -8 0 10 -262144
-1 -1 12700 1;
#X obj 467 234 hsl 128 15 0 0.5 0 0 empty empty empty -2 -8 0 10 -262144
-1 -1 12700 1;
#X obj 467 266 hsl 128 15 0 0.5 0 0 empty empty empty -2 -8 0 10 -262144
-1 -1 12700 1;
#X obj 470 300 hsl 128 15 0 0.5 0 0 empty empty empty -2 -8 0 10 -262144
-1 -1 12700 1;
#X obj 471 326 hsl 128 15 0 0.5 0 0 empty empty empty -2 -8 0 10 -262144
-1 -1 12700 1;
#X msg 601 32 0.5;
#X text 466 111 BPM:;
#X text 555 113 BEAT:;
#X text 491 151 VOLUME MIXER;
#X text 233 373 Novation Launchpad Step Sequencer / bluszcz 2013;
#X obj 28 503 soundfiler;
#X floatatom 96 505 12 0 0 0 - - -;
#X obj 23 525 s sampleSize;
#X obj 51 437 bng 15 250 50 0 empty empty empty 17 7 0 10 -262144 -1
-1;
#X msg 29 479 read -resize samples/PD_KICK.wav cL1 cR1;
#X obj 50 610 soundfiler;
#X floatatom 118 612 12 0 0 0 - - -;
#X obj 45 632 s sampleSize;
#X obj 73 544 bng 15 250 50 0 empty empty empty 17 7 0 10 -262144 -1
-1;
#X obj 45 724 soundfiler;
#X floatatom 113 726 12 0 0 0 - - -;
#X obj 40 746 s sampleSize;
#X obj 68 658 bng 15 250 50 0 empty empty empty 17 7 0 10 -262144 -1
-1;
#X msg 51 586 read -resize samples/PD_HAT_1.wav cL2 cR2;
#X obj 570 13 bng 15 250 50 0 empty empty empty 17 7 0 10 -262144 -1
-1;
#X msg 46 700 read -resize samples/PD_HAT_2.wav cL3 cR3;
#X obj 276 465 soundfiler;
#X floatatom 344 467 12 0 0 0 - - -;
#X obj 271 487 s sampleSize;
#X obj 299 399 bng 15 250 50 0 empty empty empty 17 7 0 10 -262144
-1 -1;
#X obj 56 817 soundfiler;
#X floatatom 124 819 12 0 0 0 - - -;
#X obj 51 839 s sampleSize;
#X obj 79 751 bng 15 250 50 0 empty empty empty 17 7 0 10 -262144 -1
-1;
#X msg 57 793 read -resize samples/PD_SNARE.wav cL5 cR5;
#X obj 59 944 soundfiler;
#X floatatom 127 946 12 0 0 0 - - -;
#X obj 54 966 s sampleSize;
#X obj 82 878 bng 15 250 50 0 empty empty empty 17 7 0 10 -262144 -1
-1;
#X msg 60 920 read -resize samples/PD_STAB.wav cL6 cR6;
#X msg 279 441 read -resize samples/PD_REVERSE.wav cR4 cR4;
#X connect 0 0 1 0;
#X connect 0 0 20 0;
#X connect 0 0 61 0;
#X connect 0 1 4 0;
#X connect 0 1 131 0;
#X connect 2 0 3 0;
#X connect 2 0 0 0;
#X connect 5 0 6 0;
#X connect 9 0 10 0;
#X connect 10 0 43 0;
#X connect 11 0 12 0;
#X connect 12 0 13 0;
#X connect 14 0 17 0;
#X connect 15 0 17 1;
#X connect 16 0 14 1;
#X connect 16 0 15 1;
#X connect 19 0 42 0;
#X connect 19 0 44 0;
#X connect 20 0 27 0;
#X connect 27 0 28 0;
#X connect 28 0 29 0;
#X connect 29 1 19 0;
#X connect 42 0 14 0;
#X connect 43 0 11 0;
#X connect 44 0 15 0;
#X connect 45 0 46 0;
#X connect 46 0 55 0;
#X connect 47 0 48 0;
#X connect 48 0 49 0;
#X connect 50 0 53 0;
#X connect 51 0 53 1;
#X connect 52 0 50 1;
#X connect 52 0 51 1;
#X connect 54 0 56 0;
#X connect 54 0 57 0;
#X connect 55 0 47 0;
#X connect 56 0 51 0;
#X connect 57 0 50 0;
#X connect 58 0 59 0;
#X connect 59 1 54 0;
#X connect 60 0 58 0;
#X connect 61 0 60 0;
#X connect 61 0 27 0;
#X connect 61 0 74 0;
#X connect 61 0 90 0;
#X connect 61 0 106 0;
#X connect 61 0 122 0;
#X connect 62 0 63 0;
#X connect 63 0 77 0;
#X connect 64 0 65 0;
#X connect 65 0 66 0;
#X connect 67 0 70 0;
#X connect 68 0 70 1;
#X connect 69 0 67 1;
#X connect 69 0 68 1;
#X connect 71 0 75 0;
#X connect 71 0 76 0;
#X connect 72 0 73 0;
#X connect 73 1 71 0;
#X connect 74 0 72 0;
#X connect 75 0 67 0;
#X connect 76 0 68 0;
#X connect 77 0 64 0;
#X connect 78 0 79 0;
#X connect 79 0 93 0;
#X connect 80 0 81 0;
#X connect 81 0 82 0;
#X connect 83 0 86 0;
#X connect 84 0 86 1;
#X connect 85 0 83 1;
#X connect 85 0 84 1;
#X connect 87 0 91 0;
#X connect 87 0 92 0;
#X connect 88 0 89 0;
#X connect 89 1 87 0;
#X connect 90 0 88 0;
#X connect 91 0 83 0;
#X connect 92 0 84 0;
#X connect 93 0 80 0;
#X connect 94 0 95 0;
#X connect 95 0 109 0;
#X connect 96 0 97 0;
#X connect 97 0 98 0;
#X connect 99 0 102 0;
#X connect 100 0 102 1;
#X connect 101 0 99 1;
#X connect 101 0 100 1;
#X connect 103 0 107 0;
#X connect 103 0 108 0;
#X connect 104 0 105 0;
#X connect 105 1 103 0;
#X connect 106 0 104 0;
#X connect 107 0 99 0;
#X connect 108 0 100 0;
#X connect 109 0 96 0;
#X connect 110 0 111 0;
#X connect 111 0 125 0;
#X connect 112 0 113 0;
#X connect 113 0 114 0;
#X connect 115 0 118 0;
#X connect 116 0 118 1;
#X connect 117 0 115 1;
#X connect 117 0 116 1;
#X connect 119 0 123 0;
#X connect 119 0 124 0;
#X connect 120 0 121 0;
#X connect 121 1 119 0;
#X connect 122 0 120 0;
#X connect 123 0 115 0;
#X connect 124 0 116 0;
#X connect 125 0 112 0;
#X connect 126 0 127 0;
#X connect 126 0 128 0;
#X connect 126 0 130 0;
#X connect 126 0 129 0;
#X connect 126 0 138 0;
#X connect 126 0 146 0;
#X connect 126 0 5 0;
#X connect 127 0 2 0;
#X connect 127 0 131 2;
#X connect 128 0 131 1;
#X connect 129 0 1 1;
#X connect 130 0 1 2;
#X connect 132 0 16 0;
#X connect 133 0 52 0;
#X connect 134 0 69 0;
#X connect 135 0 85 0;
#X connect 136 0 101 0;
#X connect 137 0 117 0;
#X connect 138 0 132 0;
#X connect 138 0 133 0;
#X connect 138 0 134 0;
#X connect 138 0 135 0;
#X connect 138 0 136 0;
#X connect 138 0 137 0;
#X connect 143 0 144 0;
#X connect 144 0 145 0;
#X connect 146 0 147 0;
#X connect 146 0 151 0;
#X connect 147 0 143 0;
#X connect 148 0 149 0;
#X connect 149 0 150 0;
#X connect 151 0 156 0;
#X connect 151 0 155 0;
#X connect 151 0 162 0;
#X connect 152 0 153 0;
#X connect 153 0 154 0;
#X connect 155 0 158 0;
#X connect 155 0 166 0;
#X connect 156 0 148 0;
#X connect 157 0 126 0;
#X connect 158 0 152 0;
#X connect 159 0 160 0;
#X connect 160 0 161 0;
#X connect 162 0 173 0;
#X connect 163 0 164 0;
#X connect 164 0 165 0;
#X connect 166 0 167 0;
#X connect 166 0 171 0;
#X connect 167 0 163 0;
#X connect 168 0 169 0;
#X connect 169 0 170 0;
#X connect 171 0 172 0;
#X connect 172 0 168 0;
#X connect 173 0 159 0;
#X coords 0 -1 1 1 600 300 1 100 100;
