#N canvas 508 95 980 838 10;
#X obj 188 665 noteout;
#X obj 556 527 noteout;
#X obj 360 110 inlet;
#X obj 336 167 bng 15 250 50 0 empty empty empty 17 7 0 10 -262144
-1 -1;
#X floatatom 369 388 5 0 0 0 - - -;
#X obj 284 364 f \$1;
#X floatatom 150 553 5 0 0 0 - - -;
#X floatatom 411 477 5 0 0 0 - - -;
#X obj 194 532 expr ($f1*16)+$f2;
#X msg 545 239 0;
#X obj 411 523 expr $f1+(16*$f2);
#X msg 127 369 1;
#X obj 94 575 int;
#X floatatom 82 600 5 0 0 0 - - -;
#X obj 393 597 int;
#X floatatom 451 634 5 0 0 0 - - -;
#X obj 376 250 f \$2;
#X obj 352 484 f \$2;
#X floatatom 189 423 5 0 0 0 - - -;
#X obj 541 75 inlet;
#X obj 671 171 inlet;
#X floatatom 656 279 5 0 0 0 - - -;
#X obj 654 228 int;
#X obj 388 441 tabread keys;
#X connect 2 0 3 0;
#X connect 3 0 5 0;
#X connect 3 0 9 0;
#X connect 3 0 11 0;
#X connect 3 0 6 0;
#X connect 3 0 16 0;
#X connect 3 0 17 0;
#X connect 3 0 22 0;
#X connect 4 0 23 0;
#X connect 6 0 12 0;
#X connect 7 0 10 0;
#X connect 8 0 6 0;
#X connect 9 0 1 1;
#X connect 9 0 1 2;
#X connect 10 0 14 0;
#X connect 11 0 0 2;
#X connect 12 0 13 0;
#X connect 13 0 0 0;
#X connect 14 0 15 0;
#X connect 15 0 1 0;
#X connect 16 0 4 0;
#X connect 17 0 8 1;
#X connect 18 0 0 1;
#X connect 19 0 18 0;
#X connect 20 0 22 0;
#X connect 21 0 8 0;
#X connect 21 0 10 1;
#X connect 22 0 21 0;
#X connect 23 0 7 0;
