#N canvas 111 218 1015 498 10;
#X obj 104 167 RowNumber;
#X obj 614 84 bng 15 250 50 0 empty empty empty 17 7 0 10 -262144 -1
-1;
#X obj 104 201 RowNumber;
#X obj 427 184 5;
#X obj 104 232 RowNumber;
#X obj 104 264 RowNumber;
#X obj 104 103 RowNumber;
#X obj 104 135 RowNumber;
#X obj 438 254 7;
#X obj 426 151 4;
#X obj 420 121 3;
#X obj 415 88 2;
#X obj 431 220 6;
#X obj 277 108 inlet;
#X connect 1 0 9 0;
#X connect 1 0 11 0;
#X connect 1 0 10 0;
#X connect 1 0 12 0;
#X connect 1 0 8 0;
#X connect 1 0 3 0;
#X connect 3 0 2 0;
#X connect 8 0 5 0;
#X connect 9 0 0 0;
#X connect 10 0 7 0;
#X connect 11 0 6 0;
#X connect 12 0 4 0;
#X connect 13 0 1 0;
#X coords 0 -1 1 1 180 200 1 100 100;
