#N canvas 232 22 1356 975 10;
#X obj 7 6 tgl 15 0 empty empty empty 17 7 0 10 -262144 -1 -1 0 1;
#X obj 690 28 notein;
#X floatatom 690 74 5 0 0 0 - - -;
#X floatatom 757 90 5 0 0 0 - - -;
#X floatatom 849 78 5 0 0 0 - - -;
#X floatatom -14 582 5 0 0 0 - - -;
#X obj -80 254 expr ($f1*16)+$f2;
#X obj -69 -16 loadbang;
#X obj 8 722 noteout;
#X floatatom -66 637 5 0 0 0 - - -;
#X obj -118 130 table \$0-data;
#X msg -12 646 120;
#X msg 41 647 1;
#X floatatom 279 488 5 0 0 0 - - -;
#X obj 293 708 noteout;
#X floatatom 214 630 5 0 0 0 - - -;
#X msg 273 633 0;
#X floatatom 181 63 5 0 0 0 - - -;
#X floatatom 143 223 5 0 0 0 - - -;
#X obj 320 109 bng 15 250 50 0 empty empty empty 17 7 0 10 -262144
-1 -1;
#X obj 443 104 bng 15 250 50 0 empty empty empty 17 7 0 10 -262144
-1 -1;
#X obj 320 69 select 0 1;
#X msg 457 578 0;
#X obj 407 621 tabwrite \$0-data;
#X obj 959 562 tabwrite \$0-data;
#X msg 1024 506 0;
#X msg 965 514 1;
#X floatatom 685 259 5 0 0 0 - - -;
#X obj 837 425 bng 15 250 50 0 empty empty empty 17 7 0 10 -262144
-1 -1;
#X obj 536 548 bng 15 250 50 0 empty empty empty 17 7 0 10 -262144
-1 -1;
#X msg 326 633 0;
#X floatatom 693 221 5 0 0 0 - - -;
#X obj 690 190 tabread \$0-data;
#X obj 562 -40 select 0;
#X obj 507 44 select 1;
#X obj 681 133 expr $f1+$f2;
#X floatatom 897 218 5 0 0 0 - - -;
#X obj 872 349 bng 15 250 50 0 empty empty empty 17 7 0 10 -262144
-1 -1;
#X msg 843 388 0;
#X floatatom -100 93 5 0 0 0 - - -;
#X obj -89 18 f \$1;
#X floatatom 773 229 5 0 0 0 - - -;
#X obj 874 339 select -1;
#X floatatom 847 223 5 0 0 0 - - -;
#X floatatom 811 305 5 0 0 0 - - -;
#X obj 870 179 bng 15 250 50 0 empty empty empty 17 7 0 10 -262144
-1 -1;
#X obj -35 18 bng 15 250 50 0 empty empty empty 17 7 0 10 -262144 -1
-1;
#X obj 813 269 expr 127+($f1*16)-$f3+$f2-1;
#X obj 107 165 bng 15 250 50 0 empty empty empty 17 7 0 10 -262144
-1 -1;
#X obj 50 19 f \$2;
#X floatatom 16 105 5 0 0 0 - - -;
#X obj 166 150 select 1;
#X obj 192 206 bng 15 250 50 0 empty empty empty 17 7 0 10 -262144
-1 -1;
#X obj 240 207 bng 15 250 50 0 empty empty empty 17 7 0 10 -262144
-1 -1;
#X floatatom -59 377 5 0 0 0 - - -;
#X floatatom 83 371 5 0 0 0 - - -;
#X obj 149 336 expr ($f1*16)+$f2;
#X floatatom 54 287 5 0 0 0 - - -;
#X floatatom 118 261 5 0 0 0 - - -;
#X obj 106 -21 inlet;
#X floatatom -87 53 5 0 0 0 - - -;
#X floatatom 700 578 5 0 0 0 - - -;
#X floatatom 762 548 5 0 0 0 - - -;
#X obj -105 -23 bng 15 250 50 0 empty empty empty 17 7 0 10 -262144
-1 -1;
#X obj 755 491 bng 15 250 50 0 empty empty empty 17 7 0 10 -262144
-1 -1;
#X obj 628 647 select 0 1 2 3 4 5 6 7 8;
#X floatatom 759 608 5 0 0 0 - - -;
#X obj 640 819 tabwrite row02;
#X obj 676 697 bng 15 250 50 0 empty empty empty 17 7 0 10 -262144
-1 -1;
#X obj 709 764 expr \$2;
#X msg 661 757 1;
#X floatatom 463 705 5 0 0 0 - - -;
#X floatatom 525 675 5 0 0 0 - - -;
#X obj 391 774 select 0 1 2 3 4 5 6 7 8;
#X floatatom 522 735 5 0 0 0 - - -;
#X obj 403 946 tabwrite row02;
#X obj 439 824 bng 15 250 50 0 empty empty empty 17 7 0 10 -262144
-1 -1;
#X obj 472 891 expr \$2;
#X msg 424 884 0;
#X obj 566 826 bng 15 250 50 0 empty empty empty 17 7 0 10 -262144
-1 -1;
#X obj 599 893 expr \$2;
#X msg 551 886 0;
#X obj 402 972 bng 15 250 50 0 empty empty empty 17 7 0 10 -262144
-1 -1;
#X obj 435 1039 expr \$2;
#X msg 387 1032 0;
#X obj 559 975 bng 15 250 50 0 empty empty empty 17 7 0 10 -262144
-1 -1;
#X obj 592 1042 expr \$2;
#X msg 544 1035 0;
#X obj 475 1079 bng 15 250 50 0 empty empty empty 17 7 0 10 -262144
-1 -1;
#X obj 508 1146 expr \$2;
#X msg 460 1139 0;
#X obj 643 1077 bng 15 250 50 0 empty empty empty 17 7 0 10 -262144
-1 -1;
#X obj 676 1144 expr \$2;
#X msg 628 1137 0;
#X obj 530 948 tabwrite row03;
#X obj 366 1094 tabwrite row04;
#X obj 523 1097 tabwrite row05;
#X obj 439 1201 tabwrite row06;
#X obj 607 1199 tabwrite row07;
#X obj 836 692 bng 15 250 50 0 empty empty empty 17 7 0 10 -262144
-1 -1;
#X obj 869 759 expr \$2;
#X msg 821 752 1;
#X obj 797 813 tabwrite row03;
#X obj 734 848 bng 15 250 50 0 empty empty empty 17 7 0 10 -262144
-1 -1;
#X obj 767 915 expr \$2;
#X msg 719 908 1;
#X obj 894 843 bng 15 250 50 0 empty empty empty 17 7 0 10 -262144
-1 -1;
#X obj 927 910 expr \$2;
#X msg 879 903 1;
#X obj 840 1092 expr \$2;
#X msg 792 1085 1;
#X obj 1000 1087 expr \$2;
#X msg 952 1080 1;
#X obj 698 970 tabwrite row04;
#X obj 855 964 tabwrite row05;
#X obj 771 1147 tabwrite row06;
#X obj 928 1141 tabwrite row07;
#X obj 824 1013 bng 15 250 50 0 empty empty empty 17 7 0 10 -262144
-1 -1;
#X obj 994 1011 bng 15 250 50 0 empty empty empty 17 7 0 10 -262144
-1 -1;
#X connect 0 0 17 0;
#X connect 0 0 48 0;
#X connect 0 0 51 0;
#X connect 1 0 2 0;
#X connect 1 1 3 0;
#X connect 1 2 4 0;
#X connect 2 0 35 0;
#X connect 3 0 35 1;
#X connect 5 0 11 0;
#X connect 5 0 9 0;
#X connect 5 0 12 0;
#X connect 6 0 54 0;
#X connect 7 0 46 0;
#X connect 9 0 8 0;
#X connect 11 0 8 1;
#X connect 12 0 8 1;
#X connect 13 0 16 0;
#X connect 13 0 15 0;
#X connect 13 0 30 0;
#X connect 15 0 14 0;
#X connect 16 0 14 1;
#X connect 17 0 21 0;
#X connect 18 0 43 0;
#X connect 19 0 13 0;
#X connect 19 0 29 0;
#X connect 20 0 28 0;
#X connect 21 0 19 0;
#X connect 21 1 20 0;
#X connect 22 0 23 1;
#X connect 22 0 23 0;
#X connect 25 0 24 1;
#X connect 26 0 24 0;
#X connect 27 0 33 0;
#X connect 27 0 34 0;
#X connect 28 0 26 0;
#X connect 28 0 25 0;
#X connect 28 0 5 0;
#X connect 28 0 62 0;
#X connect 29 0 22 0;
#X connect 29 0 13 0;
#X connect 29 0 72 0;
#X connect 30 0 14 1;
#X connect 31 0 27 0;
#X connect 32 0 31 0;
#X connect 33 0 0 0;
#X connect 34 0 29 0;
#X connect 34 0 0 0;
#X connect 35 0 36 0;
#X connect 35 0 45 0;
#X connect 36 0 47 2;
#X connect 37 0 38 0;
#X connect 38 0 32 0;
#X connect 39 0 6 0;
#X connect 41 0 47 0;
#X connect 42 0 37 0;
#X connect 43 0 47 1;
#X connect 44 0 42 0;
#X connect 45 0 41 0;
#X connect 45 0 43 0;
#X connect 46 0 40 0;
#X connect 46 0 49 0;
#X connect 47 0 44 0;
#X connect 49 0 50 0;
#X connect 49 0 58 0;
#X connect 50 0 18 0;
#X connect 50 0 6 1;
#X connect 51 0 52 0;
#X connect 51 1 53 0;
#X connect 54 0 5 0;
#X connect 55 0 13 0;
#X connect 56 0 55 0;
#X connect 57 0 56 0;
#X connect 58 0 56 1;
#X connect 59 0 7 0;
#X connect 59 0 60 0;
#X connect 60 0 39 0;
#X connect 60 0 57 0;
#X connect 60 0 41 0;
#X connect 60 0 62 0;
#X connect 60 0 72 0;
#X connect 62 0 65 0;
#X connect 62 0 66 0;
#X connect 63 0 60 0;
#X connect 64 0 62 0;
#X connect 65 2 68 0;
#X connect 65 3 99 0;
#X connect 65 4 103 0;
#X connect 65 5 106 0;
#X connect 65 6 117 0;
#X connect 65 7 118 0;
#X connect 68 0 70 0;
#X connect 68 0 69 0;
#X connect 69 0 67 1;
#X connect 70 0 67 0;
#X connect 72 0 73 0;
#X connect 72 0 74 0;
#X connect 73 2 76 0;
#X connect 73 3 79 0;
#X connect 73 4 82 0;
#X connect 73 5 85 0;
#X connect 73 6 88 0;
#X connect 73 7 91 0;
#X connect 76 0 78 0;
#X connect 76 0 77 0;
#X connect 77 0 75 1;
#X connect 78 0 75 0;
#X connect 79 0 81 0;
#X connect 79 0 80 0;
#X connect 80 0 94 1;
#X connect 81 0 94 0;
#X connect 82 0 84 0;
#X connect 82 0 83 0;
#X connect 83 0 95 1;
#X connect 84 0 95 0;
#X connect 85 0 87 0;
#X connect 85 0 86 0;
#X connect 86 0 96 1;
#X connect 87 0 96 0;
#X connect 88 0 90 0;
#X connect 88 0 89 0;
#X connect 89 0 97 1;
#X connect 90 0 97 0;
#X connect 91 0 93 0;
#X connect 91 0 92 0;
#X connect 92 0 98 1;
#X connect 93 0 98 0;
#X connect 99 0 101 0;
#X connect 99 0 100 0;
#X connect 100 0 102 1;
#X connect 101 0 102 0;
#X connect 103 0 105 0;
#X connect 103 0 104 0;
#X connect 104 0 113 1;
#X connect 105 0 113 0;
#X connect 106 0 108 0;
#X connect 106 0 107 0;
#X connect 107 0 114 1;
#X connect 108 0 114 0;
#X connect 109 0 115 1;
#X connect 110 0 115 0;
#X connect 111 0 116 1;
#X connect 112 0 116 0;
#X connect 117 0 110 0;
#X connect 117 0 109 0;
#X connect 118 0 112 0;
#X connect 118 0 111 0;
#X coords 0 -1 1 1 20 20 2 4 4;
