#N canvas 1053 308 1170 536 10;
#X obj 323 -6 vradio 15 1 0 8 empty empty empty 0 -8 0 10 -262144 -1
-1 3;
#X floatatom 502 -49 5 0 0 0 - - -;
#X obj 242 -42 inlet;
#X obj 66 3 Row 7 3;
#X obj 150 3 Row 7 7;
#X obj 24 3 Row 7 1;
#X obj 87 3 Row 7 4;
#X obj 45 3 Row 7 2;
#X obj 1 3 Row 7 0;
#X obj 129 3 Row 7 6;
#X obj 108 3 Row 7 5;
#X connect 0 0 1 0;
#X connect 1 0 3 0;
#X connect 1 0 4 0;
#X connect 1 0 5 0;
#X connect 1 0 6 0;
#X connect 1 0 7 0;
#X connect 1 0 8 0;
#X connect 1 0 9 0;
#X connect 1 0 10 0;
#X connect 2 0 0 0;
#X coords 0 -1 1 1 170 30 2 0 0;
