#N canvas 0 171 956 860 10;
#X obj -140 69 select 0 1 2 3 4 5 6 7;
#X obj -130 -19 inlet;
#X floatatom 179 397 5 0 0 0 - - -;
#X obj 111 112 vradio 15 1 0 8 empty empty empty 0 -8 0 10 -262144
-1 -1 1;
#X obj 135 113 vsl 15 128 0 127 0 0 empty empty empty 0 -9 0 10 -262144
-1 -1 7000 1;
#X floatatom 86 397 5 0 0 0 - - -;
#X obj -427 461 LP 0 0;
#X obj -310 556 LP 0 1;
#X obj -163 579 LP 0 3;
#X obj -22 640 LP 0 4;
#X obj 179 491 LP 0 7;
#X obj -210 339 LP 0 2;
#X obj -12 447 LP 0 5;
#X obj 111 598 LP 0 6;
#X obj 243 49 inlet;
#X obj 346 118 inlet;
#X connect 0 0 6 0;
#X connect 0 1 7 0;
#X connect 0 2 11 0;
#X connect 0 3 8 0;
#X connect 0 4 9 0;
#X connect 0 5 12 0;
#X connect 0 6 13 0;
#X connect 0 7 10 0;
#X connect 1 0 0 0;
#X connect 3 0 5 0;
#X connect 3 0 6 2;
#X connect 3 0 7 2;
#X connect 3 0 8 2;
#X connect 3 0 9 2;
#X connect 3 0 10 2;
#X connect 3 0 11 2;
#X connect 3 0 13 2;
#X connect 3 0 12 2;
#X connect 4 0 2 0;
#X connect 4 0 6 1;
#X connect 4 0 7 1;
#X connect 4 0 8 1;
#X connect 4 0 9 1;
#X connect 4 0 10 1;
#X connect 4 0 11 1;
#X connect 4 0 13 1;
#X connect 4 0 12 1;
#X connect 14 0 3 0;
#X connect 15 0 4 0;
#X coords 0 -1 1 1 60 240 2 100 100;
